<svg data-v-0dd9719b="" version="1.0" xmlns="http://www.w3.org/2000/svg" xmlns:xlink="http://www.w3.org/1999/xlink" width="100%" height="100%" viewBox="0 0 340.000000 250.000000" preserveAspectRatio="xMidYMid meet" color-interpolation-filters="sRGB" style="margin: auto;"> <rect data-v-0dd9719b="" x="0" y="0" width="100%" height="100%" fill="#fff" fill-opacity="1" class="background"></rect> <rect data-v-0dd9719b="" x="0" y="0" width="100%" height="100%" fill="url(#watermark)" fill-opacity="1" class="watermarklayer"></rect> <g data-v-0dd9719b="" fill="#333" class="icon-text-wrapper icon-svg-group iconsvg" transform="translate(48.31999969482422,89.68593978881836)"><g class="iconsvg-imagesvg" transform="translate(0,0)"><g><rect fill="#333" fill-opacity="0" stroke-width="2" x="0" y="0" width="60" height="70.6281194086072" class="image-rect"></rect> <svg x="0" y="0" width="60" height="70.6281194086072" filtersec="colorsb5707131636" class="image-svg-svg primary" style="overflow: visible;"><svg xmlns="http://www.w3.org/2000/svg" viewBox="-0.0027660317718982697 0.018489420413970947 61.60030746459961 72.51151275634766"><title>tjDvTc.tif</title><path d="M0 37.35Q0 20.91.05 4.48c0-.69-.28-1.57.45-2S2 2.6 2.64 3c10.3 5.41 18.5 13.32 26.08 22a188.21 188.21 0 0 1 14 18.28A222.56 222.56 0 0 1 55.27 64c1 1.9 2 3.79 3 5.68.2.39.65.92.18 1.23s-.88-.33-1.13-.72q-3.78-5.86-8.06-11.39a147.18 147.18 0 0 0-13.8-15.37A136 136 0 0 0 21.61 31.8c-.39-.29-.82-.85-1.32-.56s-.25.93-.25 1.42v37.17c0 2.5-.2 2.7-2.73 2.7H2.7c-2.42 0-2.65-.23-2.65-2.62Q0 53.64 0 37.35z" fill="#018896"></path><path d="M61.54 36.26V69.6c0 .68.3 1.72-.47 1.93s-1-.86-1.3-1.44c-3-6.35-6.31-12.52-9.88-18.54A203.71 203.71 0 0 0 35.19 30a136.23 136.23 0 0 0-13.82-15 70.41 70.41 0 0 0-18-12.57c-.8-.32-2.16-.7-1.9-1.43S3 .76 3.79.94a127.48 127.48 0 0 1 22.42 7.25 99 99 0 0 1 19.33 10.88c.79.57 1.52 1.21 2.29 1.81s1.41.58 1.71-.48a61.56 61.56 0 0 1 3-7.72A38.42 38.42 0 0 1 59.17 1.9c.47-.52 1-1.26 1.76-1s.57 1.22.58 1.88v33.49z" fill="#f39c00"></path><path d="M51.08 8.2c0 3.6-2 6.32-4.94 6.83-3.56.61-6.42-1.26-7.9-4.61A8 8 0 0 1 40.74 1c2.84-1.85 6-.89 8 1.26a7.38 7.38 0 0 1 2.34 5.94z" fill="#f39c00"></path></svg></svg> <!----></g></g> <g transform="translate(67,6.462810516357422)"><g data-gra="path-name" fill-rule="" class="tp-name iconsvg-namesvg" transform="translate(0,0)"><g transform="scale(1)"><g><path d="M33.93-8.14L33.93-6.88 24.97-6.88 24.97 1.53Q24.93 1.67 24.48 1.89L24.48 1.89Q24.03 2.16 22.99 2.38 21.96 2.61 20.75 2.61L20.75 2.61 19.84 2.61 19.84-6.88 12.15-6.88 11.79-8.14 19.84-8.14 19.84-13.59 13.14-13.59 12.78-14.89 23.49-14.89Q24.7-18.63 25.52-22.72L25.52-22.72 29.79-21.02Q27.27-17.19 24.79-14.89L24.79-14.89 33.57-14.89 33.57-13.59 24.97-13.59 24.97-8.14 33.93-8.14ZM14.17-22.18L14.17-22.18 14.67-22.45Q19.84-21.29 20.7-18.54L20.7-18.54Q21.29-16.79 19.93-15.71L19.93-15.71Q18.54-14.49 16.79-15.66L16.79-15.66Q16.56-15.79 16.38-15.97L16.38-15.97Q16.34-19.17 14.17-22.18ZM25.2-31.68L43.38-31.68 43.38-30.42 25.2-30.42 25.2-24.48 40.23-24.48 40.23-1.93Q40.23 0.94 38.84 2.34L38.84 2.34Q37.48 3.73 33.16 4.14L33.16 4.14Q32.94 1.53 32.04 0.49L32.04 0.49Q30.69-0.85 27.95-1.26L27.95-1.26 27.95-1.89Q32.63-1.53 33.84-1.53L33.84-1.53Q34.78-1.53 34.78-2.48L34.78-2.48 34.78-23.22 10.84-23.22 10.84 2.21Q10.84 2.7 9.36 3.38 7.88 4.05 6.3 4.05L6.3 4.05 5.44 4.05 5.44-26.82 11.21-24.48 19.84-24.48 19.84-30.42 2.16-30.42 1.75-31.68 19.84-31.68 19.84-38.3 25.2-37.71 25.2-31.68ZM63.18-37.89L63.18-37.89 63.5-38.16Q69.75-38.07 71.41-35.23L71.41-35.23Q72.41-33.48 71.14-31.86 69.88-30.24 67.81-30.78L67.81-30.78Q66.96-30.96 66.19-31.54L66.19-31.54Q66.15-33.25 65.3-35.01L65.3-35.01Q64.48-36.77 63.18-37.89ZM47.74-20.16L88.16-20.16 88.16-18.86 70.38-18.86 70.38-2.65Q70.38 0.49 68.85 2.11 67.32 3.73 62.77 4.05L62.77 4.05Q62.55 1.17 61.47 0.09L61.47 0.09Q59.85-1.3 56.61-1.75L56.61-1.75 56.61-2.34Q62.59-1.98 63.77-1.98L63.77-1.98Q64.8-1.98 64.8-2.83L64.8-2.83 64.8-18.86 48.1-18.86 47.74-20.16ZM53.46-30.6L86.94-30.6 86.94-28.26Q84.1-25.52 80.23-23.49L80.23-23.49 79.88-23.76Q80.64-26.1 81.22-29.34L81.22-29.34 53.69-29.34Q53.95-26.91 53.28-25.15L53.28-25.15Q52.6-23.45 51.3-22.63L51.3-22.63Q50.17-21.82 48.65-22.23L48.65-22.23Q47.12-22.68 46.58-24.07L46.58-24.07Q45.9-26.64 48.65-28.08L48.65-28.08Q49.99-28.75 51.03-30.24L51.03-30.24Q52.11-31.72 52.06-33.3L52.06-33.3 52.65-33.3Q53.19-31.86 53.46-30.6L53.46-30.6ZM110.03-20.38L110.03-25.11 104.36-25.11Q106.42-24.57 107.28-23.58 108.13-22.59 107.91-21.73 107.69-20.88 106.83-20.38L106.83-20.38 110.03-20.38ZM118.31-25.11L118.31-25.11 114.88-25.11 114.88-20.38 116.78-20.38Q117.58-22.54 118.31-25.11ZM97.92-12.11L102.91-12.11 104.72-14.13Q106.61-12.82 108-11.7L108-11.7Q106.47-14.4 103-16.88L103-16.88Q101.03-14.4 97.92-12.11L97.92-12.11ZM133.97-13.68L133.97-13.68 133.92-13.05Q132.84-12.73 132.12-11.74L132.12-11.74Q131.44-10.8 131.35-9.58L131.35-9.58Q128.43-10.71 126-12.69L126-12.69Q123.57-14.71 122.27-17.1L122.27-17.1Q120.42-14.58 116.73-12.2L116.73-12.2 126.9-12.2 126.9-10.89 123.12-10.89 123.12-7.51 131.49-7.51 131.49-6.25 123.12-6.25 123.12 0.85 123.88 0.85Q124.92-2.56 125.5-5.89L125.5-5.89 128.84-4.46Q127.53-1.8 124.97 0.85L124.97 0.85 133.74 0.85 133.74 2.16 108.94 2.16 108.59 0.85 118.58 0.85 118.58-6.25 111.83-6.25 111.47-7.51 118.58-7.51 118.58-10.89 115.33-10.89 115.25-11.25Q111.87-9.36 109.31-8.55L109.31-8.55 108.94-9.13Q112-10.93 114.84-13.81L114.84-13.81Q117.67-16.74 118.66-19.13L118.66-19.13 100.13-19.13 105.25-18.09Q105.12-17.59 104.4-17.37L104.4-17.37Q109.8-16.65 110.84-14.17L110.84-14.17Q111.47-12.78 110.38-11.88L110.38-11.88Q109.35-10.98 108-11.74L108-11.74 108.22-11.56Q108.09-10.84 107.1-10.84L107.1-10.84Q109.31-8.59 110.52-7.33L110.52-7.33Q110.34-6.61 109.39-6.61L109.39-6.61 103.95-6.61 103.95-1.03 104.63-1.08Q105.48-3.82 106.06-6.34L106.06-6.34 109.17-4.95Q107.69-2.48 106.25-1.21L106.25-1.21 110.88-1.62 110.97-0.9Q107.14 0.14 95.17 2.65L95.17 2.65Q94.91 3.33 94.14 3.6L94.14 3.6 91.84-0.22Q93.87-0.32 99.86-0.72L99.86-0.72 99.86-6.61 93.42-6.61 93.06-7.88 99.86-7.88 99.86-10.84 97.02-10.84 96.89-11.34Q93.83-9.31 91.39-8.37L91.39-8.37 90.99-8.82Q93.42-10.8 95.58-13.68L95.58-13.68Q97.78-16.56 98.91-19.13L98.91-19.13 94.09-19.13 93.69-20.38 104.36-20.38Q103.81-20.7 103.64-20.88L103.64-20.88Q103.68-23.18 102.38-25.11L102.38-25.11 97.83-25.11 97.47-26.41 110.03-26.41 110.03-28.75 104.31-28.75 104-29.97 119.88-30.06 119.88-28.75 114.88-28.75 114.88-26.41 126.54-26.41 126.54-25.11 119.97-25.11 124.2-23.8Q123.93-22.95 122.49-22.99L122.49-22.99Q120.64-21.6 118.48-20.38L118.48-20.38 131.44-20.38 131.44-19.13 120.11-19.13 124.38-18.27Q124.25-17.64 122.81-17.5L122.81-17.5Q125.91-14.8 133.97-13.68ZM112.5-5.44L112.5-5.44 113-5.71Q117.13-4.46 117.67-2.16L117.67-2.16Q118.03-0.63 116.82 0.14L116.82 0.14Q115.42 0.99 114.08-0.27L114.08-0.27Q114.08-2.75 112.5-5.44ZM94.32-5.85L94.32-5.85 94.81-6.12Q98.59-5.04 98.95-2.97L98.95-2.97Q99.18-1.67 98.01-1.03L98.01-1.03Q96.8-0.4 95.63-1.48L95.63-1.48Q95.72-3.78 94.32-5.85ZM105.3-7.88L107.19-10.35 103.95-10.84 103.95-7.88 105.3-7.88ZM104.22-30.06L104.22-30.06Q97.74-27.27 91.75-26.19L91.75-26.19 91.62-26.77Q97.16-28.75 102.24-32.09L102.24-32.09Q107.33-35.46 109.58-38.61L109.58-38.61 116.1-36.67Q115.92-35.87 113.98-35.68L113.98-35.68Q121.5-32.35 133.69-32.22L133.69-32.22 133.69-31.5Q131.22-30.6 130.77-27L130.77-27Q119.16-29.34 113.31-35.23L113.31-35.23Q109.8-32.53 104.22-30.06ZM153.18-37.89L153.18-37.89 153.5-38.16Q159.75-38.07 161.41-35.23L161.41-35.23Q162.41-33.48 161.15-31.86 159.88-30.24 157.81-30.78L157.81-30.78Q156.96-30.96 156.19-31.54L156.19-31.54Q156.15-33.25 155.29-35.01L155.29-35.01Q154.49-36.77 153.18-37.89ZM143.46-30.6L176.94-30.6 176.94-28.26Q174.28-25.43 170.91-23.49L170.91-23.49Q171-26.14 171.31-29.34L171.31-29.34 143.69-29.34Q143.96-26.91 143.28-25.15 142.6-23.4 141.3-22.59L141.3-22.59Q140.18-21.78 138.6-22.18L138.6-22.18Q137.07-22.63 136.53-24.03L136.53-24.03Q135.9-26.68 138.65-28.08L138.65-28.08Q140-28.75 141.03-30.24L141.03-30.24Q142.11-31.72 142.06-33.3L142.06-33.3 142.65-33.3Q143.19-31.86 143.46-30.6L143.46-30.6ZM170.5-23.85L170.5-23.85 171.59-22.9Q171.41-22.18 170.32-22.18L170.32-22.18 160.16-22.18 160.16-14.67 178.11-14.67 178.11-13.41 160.16-13.41 160.16-2.65Q160.16 0.45 158.67 2.07 157.19 3.69 152.73 4.05L152.73 4.05Q152.59 1.21 151.47 0.14L151.47 0.14Q150.12-1.21 146.79-1.75L146.79-1.75 146.79-2.34Q152.5-1.98 153.68-1.98L153.68-1.98Q154.71-1.98 154.71-2.83L154.71-2.83 154.71-13.41 137.38-13.41 137.03-14.67 154.71-14.67 154.71-22.18 143.78-22.18 143.41-23.45 163.66-23.45 166.45-27Q168.62-25.38 170.5-23.85Z" transform="translate(-1.75, 38.61000061035156)"></path></g> <!----> <!----> <!----> <!----> <!----> <!----> <!----></g></g> <g data-gra="path-slogan" fill-rule="" class="tp-slogan iconsvg-slogansvg" fill="#333" transform="translate(4.999992370605469,48.75)"><rect x="0" height="1" y="3.9750003814697266" width="33.584999084472656"></rect> <rect height="1" y="3.9750003814697266" width="33.584999084472656" x="132.7750015258789"></rect> <g transform="translate(36.584999084472656,0)"><g transform="scale(1)"><path d="M2.30-8.58L6.61-1.64L6.61-8.58L7.73-8.58L7.73 0L6.42 0L2.06-6.94L2.02-6.94L2.02 0L0.89 0L0.89-8.58L2.30-8.58ZM15.19 0L14.34-2.48L10.88-2.48L9.98 0L8.81 0L12.05-8.58L13.36-8.58L16.45 0L15.19 0ZM12.61-7.31L11.25-3.52L13.92-3.52L12.66-7.31L12.61-7.31ZM18.89-8.58L23.20-1.64L23.20-8.58L24.33-8.58L24.33 0L23.02 0L18.66-6.94L18.61-6.94L18.61 0L17.48 0L17.48-8.58L18.89-8.58ZM27.52-8.58L31.83-1.64L31.83-8.58L32.95-8.58L32.95 0L31.64 0L27.28-6.94L27.23-6.94L27.23 0L26.11 0L26.11-8.58L27.52-8.58ZM34.92-8.58L36.09-8.58L36.09 0L34.92 0L34.92-8.58ZM39.47-8.58L43.78-1.64L43.78-8.58L44.91-8.58L44.91 0L43.59 0L39.23-6.94L39.19-6.94L39.19 0L38.06 0L38.06-8.58L39.47-8.58ZM53.11-3.61L50.48-3.61L50.48-4.59L54.23-4.59L54.23 0L53.48 0L53.20-1.08Q52.22 0.09 50.39 0.14L50.39 0.14Q48.66 0.14 47.72-0.75L47.72-0.75Q46.31-2.06 46.36-4.36L46.36-4.36Q46.69-8.63 50.44-8.81L50.44-8.81Q53.63-8.63 54.09-6L54.09-6L52.97-6Q52.50-7.78 50.39-7.83L50.39-7.83Q47.72-7.64 47.58-4.31L47.58-4.31Q47.58-0.75 50.44-0.75L50.44-0.75Q51.47-0.75 52.22-1.31L52.22-1.31Q53.16-2.06 53.11-3.61L53.11-3.61ZM66.09-8.58L63.19-4.41L66.23 0L64.78 0L62.44-3.52L60.09 0L58.69 0L61.78-4.41L58.88-8.58L60.33-8.58L62.48-5.30L64.69-8.58L66.09-8.58ZM67.50-8.58L68.67-8.58L68.67 0L67.50 0L67.50-8.58ZM72.05-8.58L76.36-1.64L76.36-8.58L77.48-8.58L77.48 0L76.17 0L71.81-6.94L71.77-6.94L71.77 0L70.64 0L70.64-8.58L72.05-8.58ZM86.20-8.58L82.97-3.47L82.97 0L81.80 0L81.80-3.47L78.56-8.58L79.92-8.58L82.36-4.45L84.84-8.58L86.20-8.58ZM92.91-3.19L92.91-8.58L94.08-8.58L94.08-3.05Q93.94 0.05 90.56 0.14L90.56 0.14Q87.42 0.05 87.28-2.86L87.28-2.86L87.28-8.58L88.45-8.58L88.45-3.19Q88.50-0.84 90.61-0.80L90.61-0.80Q92.91-0.84 92.91-3.19L92.91-3.19Z" transform="translate(-0.890625, 8.8125)"></path></g></g></g></g></g><defs v-gra="od"></defs></svg>